<?xml version="1.0" standalone="no"?>
<!DOCTYPE svg PUBLIC "-//W3C//DTD SVG 20010904//EN"
 "http://www.w3.org/TR/2001/REC-SVG-20010904/DTD/svg10.dtd">
<svg version="1.0" xmlns="http://www.w3.org/2000/svg"
 width="640.000000pt" height="640.000000pt" viewBox="0 0 640.000000 640.000000"
 preserveAspectRatio="xMidYMid meet">
<metadata>
Created by potrace 1.11, written by Peter Selinger 2001-2013
</metadata>
<g transform="translate(0.000000,640.000000) scale(0.100000,-0.100000)"
fill="#000000" stroke="none">
<path d="M125 5435 l-25 -24 0 -386 0 -386 25 -24 24 -25 666 0 666 0 24 25
25 24 0 386 0 386 -25 24 -24 25 -666 0 -666 0 -24 -25z"/>
<path d="M1715 5435 l-25 -24 0 -386 0 -386 25 -24 24 -25 666 0 666 0 24 25
c27 27 26 -14 26 580 0 69 0 145 -1 170 0 35 -6 52 -25 70 l-24 25 -666 0
-666 0 -24 -25z"/>
<path d="M3300 5440 c-18 -18 -20 -33 -20 -137 -2 -685 -2 -693 35 -707 9 -3
316 -6 681 -6 l665 0 24 25 25 24 0 384 c0 364 -1 386 -19 408 l-19 24 -676 3
c-666 2 -676 2 -696 -18z"/>
<path d="M4892 5440 c-22 -21 -22 -22 -22 -415 0 -393 0 -394 22 -415 21 -20
31 -20 690 -20 l669 0 24 25 25 24 0 386 0 386 -25 24 -24 25 -669 0 c-659 0
-669 0 -690 -20z"/>
<path d="M122 4250 c-22 -21 -22 -23 -22 -406 l0 -385 25 -24 24 -25 666 0
666 0 24 25 25 24 0 385 c0 383 0 385 -22 406 -21 20 -31 20 -693 20 -662 0
-672 0 -693 -20z"/>
<path d="M1712 4250 c-22 -21 -22 -23 -22 -406 l0 -385 25 -24 24 -25 666 0
666 0 24 25 25 24 0 384 c0 372 -1 384 -20 405 l-21 22 -673 0 c-663 0 -673 0
-694 -20z"/>
<path d="M3302 4250 c-22 -21 -22 -23 -22 -409 0 -376 1 -388 20 -409 l21 -22
670 0 670 0 24 25 25 24 0 381 0 381 -25 24 -24 25 -669 0 c-659 0 -669 0
-690 -20z"/>
<path d="M4892 4250 c-22 -21 -22 -22 -22 -410 0 -388 0 -389 22 -410 21 -20
31 -20 690 -20 l669 0 24 25 25 24 0 385 c0 383 0 385 -22 406 -21 20 -31 20
-693 20 -662 0 -672 0 -693 -20z"/>
<path d="M124 3076 c-18 -14 -19 -32 -22 -404 l-3 -391 23 -20 c18 -18 35 -21
102 -21 96 0 1236 0 1252 0 5 0 20 9 32 20 22 21 22 23 22 404 0 371 -1 383
-20 404 l-21 22 -672 0 c-566 0 -676 -2 -693 -14z"/>
<path d="M1710 3068 c-19 -21 -20 -33 -20 -403 0 -370 1 -382 20 -403 12 -12
31 -22 43 -22 12 0 313 0 669 -1 668 0 678 1 693 39 10 26 7 747 -4 773 -5 15
-17 29 -26 33 -9 3 -318 6 -685 6 l-669 0 -21 -22z"/>
<path d="M3302 3070 c-25 -23 -23 24 -23 -487 0 -311 2 -326 49 -338 34 -8
1316 -7 1338 2 43 16 43 22 44 419 0 369 -1 381 -20 402 l-21 22 -673 0 c-663
0 -673 0 -694 -20z"/>
<path d="M4890 3068 c-19 -21 -20 -33 -20 -403 0 -462 -12 -425 143 -425 901
-2 1229 1 1247 10 11 6 24 19 30 30 12 22 14 758 2 776 -21 33 -49 34 -716 34
l-665 0 -21 -22z"/>
<path d="M287 1920 c-141 -5 -150 -6 -168 -29 -18 -22 -19 -44 -19 -408 l0
-384 25 -24 24 -25 666 0 666 0 24 25 25 24 0 386 0 386 -25 24 c-22 23 -32
25 -122 25 -54 0 -289 2 -523 3 -234 1 -492 0 -573 -3z"/>
<path d="M1888 1920 c-133 -4 -160 -8 -175 -23 -17 -16 -18 -49 -21 -399 -1
-210 0 -388 2 -395 3 -7 6 -17 6 -21 4 -29 53 -31 708 -32 l663 0 24 25 25 24
0 386 0 386 -25 24 c-24 25 -26 25 -207 25 -101 0 -331 2 -513 3 -181 1 -401
0 -487 -3z"/>
<path d="M3447 1920 c-125 -5 -140 -7 -150 -25 -14 -24 -27 -703 -14 -775 4
-25 15 -51 24 -57 13 -10 166 -13 685 -13 l669 0 24 25 25 24 0 383 c0 424 0
422 -63 433 -41 8 -1017 12 -1200 5z"/>
<path d="M4911 1912 c-14 -7 -29 -19 -33 -25 -4 -7 -8 -188 -8 -403 0 -379 1
-391 20 -412 l21 -22 670 0 670 0 24 25 25 24 0 375 c0 221 -4 385 -10 401 -5
14 -21 30 -36 35 -15 6 -278 11 -672 13 -517 2 -651 -1 -671 -11z"/>
</g>
</svg>
